<?xml version="1.0" encoding="UTF-8"?>
<svg width="256px" height="256px" viewBox="0 0 256 256" version="1.1" xmlns="http://www.w3.org/2000/svg">
    <g fill="#FF2D20">
        <path d="M128,0 C57.28,0 0,57.28 0,128 C0,198.72 57.28,256 128,256 C198.72,256 256,198.72 256,128 C256,57.28 198.72,0 128,0 M128,25.6 C184.32,25.6 230.4,71.68 230.4,128 C230.4,184.32 184.32,230.4 128,230.4 C71.68,230.4 25.6,184.32 25.6,128 C25.6,71.68 71.68,25.6 128,25.6 M102.4,76.8 L102.4,179.2 L179.2,128 L102.4,76.8"/>
    </g>
</svg> 