<?xml version="1.0" encoding="UTF-8"?>
<svg width="256px" height="256px" viewBox="0 0 256 256" version="1.1" xmlns="http://www.w3.org/2000/svg">
    <g fill="#00758F">
        <path d="M235.648,194.212 C221.729,193.938 210.942,195.934 203.204,199.374 C201.006,200.285 197.694,200.285 197.419,202.832 C198.605,203.744 198.879,205.566 199.978,206.753 C202.176,209.574 205.762,213.563 208.509,215.659 C211.806,218.205 215.103,220.751 218.4,223.023 C224.863,227.012 232.326,229.283 238.789,233.272 C242.361,235.544 245.932,238.365 249.504,240.911 C251.427,242.183 252.338,244.455 254.81,245.091 L254.81,244.729 C253.624,243.268 253.349,241.172 252.163,239.71 C250.428,238.249 248.692,237.062 246.957,235.601 C242.361,229.834 236.997,224.617 231.084,220.353 C226.213,216.913 215.927,212.1 213.454,206.833 C213.454,206.833 213.179,206.472 212.905,206.291 C216.477,205.93 220.598,204.468 223.895,203.281 C229.809,201.545 235.098,201.819 241.285,200.083 C244.308,199.172 247.33,198.26 250.353,197.074 L250.353,195.613 C247.856,193.066 246.12,189.626 243.623,186.98 C236.434,180.112 228.497,173.518 220.011,167.752 C215.414,164.312 209.776,161.765 204.939,158.874 C203.204,157.962 200.432,157.412 199.246,156.05 C195.95,152.61 193.727,148.346 191.23,144.357 C186.359,136.214 181.763,127.246 177.441,118.729 C174.419,112.962 172.409,107.196 168.837,101.979 C148.89,71.0407 127.392,51.8217 96.6111,32.8777 C90.1479,29.1627 82.6858,27.1667 75.2237,24.8947 C70.9027,24.5337 66.5817,24.1727 62.2607,23.8117 C59.2137,22.2597 56.1667,18.9947 53.3947,17.2587 C41.3097,10.6647 7.45272,-8.91533 0.812717,8.82867 C-3.30728,20.4567 12.3237,31.8707 16.1697,36.4087 C18.9417,39.5037 22.5137,43.2177 24.5237,46.8517 C25.7097,49.3977 26.0717,52.2187 27.2577,54.9447 C30.0047,61.8107 32.7517,69.4047 36.3237,75.8967 C38.3337,79.3367 40.6187,82.9707 43.1907,86.0497 C44.6517,87.7857 47.1237,88.5127 47.6737,91.0587 C45.1157,94.7087 44.9277,100.199 43.4667,104.639 C36.8247,122.859 38.8507,145.767 46.3127,160.335 C48.5977,164.599 54.5807,173.83 63.4467,170.39 C71.2597,167.398 69.6127,157.151 71.8977,148.182 C72.4477,146.172 72.0857,144.71 73.2717,143.249 L73.2717,143.61 C75.2817,147.601 77.2917,151.315 79.0277,155.305 C83.6237,162.171 92.7117,169.587 100.175,174.078 C104.221,176.624 107.518,181.387 112.665,182.847 L112.665,182.486 L112.39,182.486 C111.479,181.024 110.018,180.387 108.831,179.201 C106.272,176.103 103.438,172.389 101.428,168.85 C96.0611,160.156 91.2447,150.639 86.9777,140.847 C84.9677,136.308 83.2317,131.219 81.7707,126.68 C81.2207,125.219 81.2207,122.947 80.0347,122.31 C77.8377,125.944 74.3707,129.109 72.6347,133.373 C69.6127,139.865 69.3377,148.107 68.2387,156.325 C67.6887,156.325 67.9637,156.325 67.9637,156.686 C63.3677,155.499 61.9067,150.865 60.1707,146.876 C55.2997,135.672 54.5807,116.728 58.7017,103.452 C59.8877,99.7377 65.8017,86.4867 63.6047,82.9707 C62.4187,79.8757 58.8467,77.8797 57.1107,75.3337 C54.8557,71.8937 52.4837,67.6297 50.7477,63.9157 C46.1517,53.5737 44.1417,42.3057 39.2707,31.8707 C37.2607,27.3317 33.6887,22.5177 30.9167,18.2537 C27.8697,13.4897 24.2977,10.3947 21.8757,4.90267 C21.0517,3.07667 20.1407,0.35567 21.6017,-0.83133 C22.2387,-1.74333 23.1497,-1.38233 24.2977,-1.01933 C27.0697,0.89667 29.8417,2.81267 31.8517,4.54867 C36.9987,8.53867 41.5947,13.3037 45.4407,17.8337 C47.1767,19.8457 49.1867,23.0107 51.4717,24.1727 L53.4817,24.1727 C57.6577,25.3587 62.3827,24.7217 66.2837,25.9077 C73.2717,28.1797 79.7097,31.2747 85.8977,34.7147 C103.163,44.2317 117.906,58.4137 128.766,75.7847 C130.776,78.8797 131.687,81.7007 133.422,84.9717 C136.994,91.2947 141.315,97.7867 144.887,103.828 C148.459,109.595 151.932,115.636 156.803,120.4 C159.3,122.947 167.313,124.133 171.214,125.594 C174.237,126.781 178.907,127.967 181.679,129.428 C187.043,132.249 192.407,135.621 197.496,138.717 C200.069,140.453 208.906,144.443 209.181,147.814 C204.772,147.475 201.115,147.814 197.771,149.275 L197.771,149.275 Z"/>
    </g>
</svg> 